<?xml version="1.0" encoding="UTF-8"?>
<svg id="Capa_2" data-name="Capa 2" xmlns="http://www.w3.org/2000/svg" xmlns:xlink="http://www.w3.org/1999/xlink" viewBox="0 0 159.53 163.8">
  <defs>
    <style>
      .cls-1 {
        fill: url(#linear-gradient);
      }

      .cls-1, .cls-2, .cls-3 {
        stroke-width: 0px;
      }

      .cls-2 {
        fill: none;
      }

      .cls-3 {
        fill: url(#Nueva_muestra_de_motivo_3);
      }
    </style>
    <linearGradient id="linear-gradient" x1="1703.29" y1="554.85" x2="1944.16" y2="554.85" gradientTransform="translate(698.22 1944.16) rotate(-90) scale(1 -1)" gradientUnits="userSpaceOnUse">
      <stop offset="0" stop-color="#dcc173"/>
      <stop offset=".24" stop-color="#ab8136"/>
      <stop offset=".52" stop-color="#73582b"/>
      <stop offset=".86" stop-color="#dcc173"/>
    </linearGradient>
    <pattern id="Nueva_muestra_de_motivo_3" data-name="Nueva muestra de motivo 3" x="0" y="0" width="286.73" height="240.87" patternTransform="translate(1062.05 2265.93)" patternUnits="userSpaceOnUse" viewBox="0 0 286.73 240.87">
      <g>
        <rect class="cls-2" width="286.73" height="240.87"/>
        <polygon class="cls-1" points="286.73 0 286.73 240.87 0 240.87 0 0 286.73 0"/>
      </g>
    </pattern>
  </defs>
  <g id="Capa_1-2" data-name="Capa 1">
    <g>
      <path class="cls-3" d="m67.05,46.3c-2.05-.2-8.65-1.05-7.85-9.5.6-6,4.65-13.75,7.9-21.15,4-9.2-1.55-8.7-10.55,2.55-3.15,3.9-11.65,17.05-13.45,21.4-1.9,4.4-5.5,2.45-4.55,1,.8-1.65,7.95-12.55,9.95-29.05.8-6.45-3.45-6.1-7.4-1.2-8.7,10.8-11.2,16.85-18.05,32.05-.8,1.85-4.6,1.9-4.1.3,4.25-6.6,11.05-23.6,12.2-31.75,2.75-19.9-22.25-5.9-27.1,7.4-4.2,11.65,2.65,17.15,9.25,14.75,6.4-2.4,11.15-14.85,3.2-13.8-.9.1-2.15-.75.25-1.05,8.35-1.2,7.3,11.3-3.5,15.8-7.4,3.05-16.85-4.3-11.85-16.2C8.6,1.04,35.9-8.86,34.05,11.05c-.35,3.15-1.35,6.65-2.6,9.95-.65,1.9-.2,2.15.65.55,2.9-5.25,4.6-7.8,8.15-12.1,3.85-4.65,12.1-6.65,11.3,1.85-.6,6.4-2.85,12.45-4.9,18.7,2.05-3.2,5.8-8.5,9.9-13.6,11.55-14.45,19.05-11.2,13.3.3-4.35,8.65-13.65,29.3-2,28.8,1.9-.1,1.2,1-.8.8Z"/>
      <path class="cls-3" d="m79.1,40.7c-1.65.1-4-1.2-2.5-6.45-.8,1.3-2.15,3.3-3.6,4.7-5.75,5.5-9.55-3.25-2-12.3,3-3.55,8.75-5.4,11.6-2.3.7.75.3,1.6-.55,1.45-.55-1.85-2.4-2.25-4.25-1.25-2.25,1.25-4.85,4.2-6.65,7.15-.4.7-1.75,3.15-2.05,5.05-.5,3.5,2.25,3.1,4.6.3,1.75-2.1,3.15-4.55,4.45-7,1.1-2.1,1.8-3.3,3.4-3.2.65.05,1.4.35,2.1.2-1.05,1.05-4,6.3-4.65,9.35-.4,2.05-.15,3,.5,3,2.1.1,5.4-6.25,6.45-8.4.45-.9,1.2-.6.7.4-1.5,3.05-4.55,9.05-7.55,9.3Z"/>
      <path class="cls-3" d="m92.35,40.55c-1.7.4-4.75-1.1-2.75-6.3.75-2.05,2.55-4.65,3.1-5.9.7-1.65-1.05-2.3-3.85-2.35l-.6,1.6c-1.2,3.15-3.6,8.7-6.05,11.05-.4.35-.7-.2-.4-.65,3.95-5.2,6.7-12.75,7.7-18.35.5-2.8,3.75-1.55,3.05,1.8-.3,1.4-1.9,2.75-2.75,3.35,1.85.1,4.45.05,6.9-.2.35.7-.45,2.6-1.05,3.85-.75,1.55-5.85,10.7-2.85,10.85,2.05.05,5.15-6.2,6.2-8.35.45-.85,1.1-.5.6.5-1.45,3-4,8.3-7.25,9.1Z"/>
      <path class="cls-3" d="m100.65,39.5c.75.1,1.7-.45,2.25-.95,1.65-1.65,3.3-4.75,4.7-7.55.4-.9,1.1-.55.65.45-1.3,2.8-4.15,9.15-7.85,9.15s-3.75-3.9-2.7-6.5l3.2-8.15c.4-.95-.3-1.85-.5-2.1l2.75-.05c1.6,0,1.6.55,1.05,1.75l-4,9.35s-.5,1.1-.6,1.45c-.45,1.65-.35,3.05,1.05,3.15Zm3.6-17.75c-1.15,0-1.9-.9-1.75-2.05.2-1.15,1.3-2.05,2.4-2.05s1.95.9,1.75,2.05c-.2,1.15-1.25,2.05-2.4,2.05Z"/>
      <path class="cls-3" d="m118.3,40.7c-1.65.1-4-1.2-2.5-6.45-.8,1.3-2.15,3.3-3.6,4.7-5.75,5.5-9.55-3.25-2-12.3,3-3.55,8.75-5.4,11.6-2.3.7.75.3,1.6-.55,1.45-.55-1.85-2.4-2.25-4.25-1.25-2.25,1.25-4.85,4.2-6.65,7.15-.4.7-1.75,3.15-2.05,5.05-.5,3.5,2.25,3.1,4.6.3,1.75-2.1,3.15-4.55,4.45-7,1.1-2.1,1.8-3.3,3.4-3.2.65.05,1.4.35,2.1.2-1.05,1.05-4,6.3-4.65,9.35-.4,2.05-.15,3,.5,3,2.1.1,5.4-6.25,6.45-8.4.45-.9,1.2-.6.7.4-1.5,3.05-4.55,9.05-7.55,9.3Z"/>
      <path class="cls-3" d="m134.35,40.8c-1.75,0-4.15-1.2-2.65-5.85.4-1.3,1.35-3,2.75-5.25,1.2-1.95.3-3.3-3.55.3-1.7,1.55-4.15,4.35-6.95,9.9-.4.7-.85.75-1.9.75-.75.05-1.2,0-1.7.3,2.4-4.75,4.45-9.5,6.9-14,1.3-2.4,1.95-3.25,3.55-3.15.65.05,1.4.35,2.1.2-1.5.8-4.25,5.8-6.05,9.4,1-1.25,2.6-3.15,4.15-4.5,2.4-2.15,7.55-5.3,9.25-4.7,0,0-5.35,9.4-6,12.9-.4,2.05.15,2.5.8,2.5,2.6,0,5.8-6.55,6.85-8.65.4-.9,1.2-.55.7.45-1.5,3.05-4.4,9.4-8.25,9.4Z"/>
      <path class="cls-3" d="m151.6,40.2c-1.5,0-2.55-.55-3.2-1.3-1.4,1.05-2.9,1.75-4.35,1.7-3.8-.1-4.35-4.65-2.45-9.1,1.95-4.6,6.1-8.5,9.5-8.4,3.8.05,4.35,4.65,2.45,9.1-.75,1.75-2.3,4.1-4.2,5.9.4.75,1.15,1.25,2.35,1.25,3.2,0,5.8-6.2,7-8.6.25-.5,1.1-.3.75.45-.85,1.9-3.65,9-7.85,9Zm-6.55-8.9c-1.95,4.1-2.4,7.6-.6,8.15.95.25,2.2-.25,3.4-1.25-.55-.8-.8-1.7-.8-2.45.05-1.15.5-2.15,1.75-2.15.85,0,1.5.7,1.5,1.5,0,.2-.05.35-.1.55.55-.8,1.1-1.75,1.55-2.7,1.95-4.1,2.2-7.65.4-8.2-2.15-.6-5.25,2.6-7.1,6.55Z"/>
      <path class="cls-3" d="m88.22,88.05c5.45,4.5-1.8,14.8-12.85,14.8-17.95,0-15.9-20.1,2-22-.9-1.25-1.4-2.95-1.4-4.5.15-7.1,9-11,15.2-10.9,2.75.05,6,1.05,6,4.4,0,1.9-1.35,3.7-3.05,3.7-1.35,0-2.4-1.1-2.35-2.4.05-1.35,1.05-2.3,2.4-2.25.6,0,1.5.45,1.65.9.4-2.25-1.55-2.95-3.35-3-2.65-.05-6.4,1.2-9.75,4.1-2.3,2.05-5.2,6.55-3.65,9.8,1.05,0,2.65-.2,4.15-.1,2.9.25,3.35,3.15-.15,3.15-2.2,0-4-1.15-5.05-2.2-11.85,1.75-14.3,20.65-2.65,20.65,7.05,0,11.9-5.8,12.1-9.75.25-5.55-13.4-5.45-14.35.25-.25,1.55.75,3.25,3.3,4.6.55.3.6,1.35,0,1.05-8.75-4.7-6.15-11.9,4-11.9h8.85c2.35,0,11.7-2.5,9.05-6.45-.35-.55.2-.95.55-.4,3.05,4.55-4,8.55-10.65,8.45Zm-8.75-6.65c.75.95,1.95,1.5,3.6,1.5,2.45,0,1.9-1.3.1-1.45-1.3-.1-2.5-.1-3.7-.05Z"/>
      <path class="cls-3" d="m49.78,138.25c-5.65.5-10.4.35-15.1-1.15-1.8,2.55-5.45,8.15-7.25,12.6-5.1,12.75,2.85,15,12.05,7.35,5.15-4.35,10.45-10.85,13.1-15.75,3.1-5.8,5.75-1.75,2.85,1.4-2.8,3.15-5.65,8.5-6.55,13.4-1.55,8.45,3.4,7.2,7.35,2.3,1.55-2,3.25-4.6,4.35-7.1.45-.95,1.4-1,.85.2-.9,2-2.8,5.55-4.65,8-1.7,2.3-4.55,4.3-7.35,4.3-5.55,0-4.3-9.85-2.05-12.8-4.1,4.85-13.45,14.4-20.55,11.35-4.8-2.05-4.8-10.9.2-19.95,1.25-2.25,2.7-4.4,4.4-6.35-2-.95-3.75-2.05-5-3.45-1.4-1.6-1.55-4.85-.45-5.65.6-.8,1.45-.25.9.95-.65,1.5-.1,2.65,1.05,3.95,1.1,1.25,2.6,2.3,4.4,3.15,6.3-7,14.65-13.05,24.4-13.05,5.35,0,8.6,2.65,8.6,6.35s-3.9,8.9-15.55,9.95Zm7.1-15c-9.35,0-15.8,6.15-21.4,12.85,3.9,1.25,7.95,1.5,14.3.95,8.3-.7,13.5-4.4,13.5-9.35,0-2.95-2.75-4.45-6.4-4.45Z"/>
      <path class="cls-3" d="m63.52,150.95c-.25.85-.75,2.05-1.05,3.3-1.5,6,2.5,6.85,5.15,3.15,1.65-2.35,3.05-5.05,3.7-6.35.45-.85,1.2-.75.75.25-1.25,2.65-3.85,9.4-8.9,9.4-5.6,0-3.2-6.85-2.35-9.85,1.55-5.6,4.7-12.8,7.6-17.65,3.55-5.95,8.95-5.25,5.35,2.75-2.3,5.15-5.35,10.55-10.25,15Zm8.3-18c-2.45,3.45-6.35,12.4-7.9,16.4,3.55-3.6,7.15-9.5,9.1-14.15,1-2.3,1.5-6.1-1.2-2.25Z"/>
      <path class="cls-3" d="m74.87,160.8c-2.5,0-4.75-1.65-4.8-4.8-.05-3,1.65-6.75,3.85-9.35,2.55-3,6.35-4.9,8.55-3.25,1.9,1.45.45,4.85-2.75,7.3-1.55,1.15-4.8,2.2-6.15,2.2-.75,1.8-1.6,6.85,1.7,6.85,4.4,0,7.1-5.9,8.25-8.55.4-.9,1.4-1,.9.05-1.85,4-4,9.55-9.55,9.55Zm2.05-13.45c-1.3,1.6-2.55,3.8-3,4.7.9,0,3.5-.7,5.3-2.2,4.1-3.45,3.85-9.95-2.3-2.5Z"/>
      <path class="cls-3" d="m86.77,160.3c-.7.3-1.4.5-2.05.5-6.05,0-4.9-6.95-2.5-7.05,1.35-2.55,3-5.8,4.3-8.65.9-1.95,2.4-4.05,4.15-4.3.75-.1,1.35,0,1.85.25.9.45.7,1.3-.2.85-.5-.2-1.1-.3-1.6-.05-2.3,1.1-1.8,4.55-1.05,6.35.8,1.9,1.9,3.7,1.8,5.9-.1,1.95-1.6,4.25-3.55,5.55l.35.05c1.7.25,3.25-.8,4.5-2.3,1.15-1.4,2.7-4.5,3.75-6.55.25-.5,1-.2.75.3-1.85,4.15-4.85,10.85-10.5,9.15Zm-3.4-4.3c-1.6,1.6-.95,3.95,1,3.95.35,0,.7-.05,1-.2-1.05-.65-1.9-1.85-2-3.75Zm4.4-11.4c-1.35,2.7-3.5,7.05-4.7,9.25,0,0,1.1-.05,1.05,1.6-.1,1.9.95,3.3,2.1,3.85,1.1-.85,2.05-2.55,2.2-5.2.15-3.15-1.05-7.25-.65-9.5Z"/>
      <path class="cls-3" d="m99.57,160.3c-.7.3-1.4.5-2.05.5-6.05,0-4.9-6.95-2.5-7.05,1.35-2.55,3-5.8,4.3-8.65.9-1.95,2.4-4.05,4.15-4.3.75-.1,1.35,0,1.85.25.9.45.7,1.3-.2.85-.5-.2-1.1-.3-1.6-.05-2.3,1.1-1.8,4.55-1.05,6.35.8,1.9,1.9,3.7,1.8,5.9-.1,1.95-1.6,4.25-3.55,5.55l.35.05c1.7.25,3.25-.8,4.5-2.3,1.15-1.4,2.7-4.5,3.75-6.55.25-.5,1-.2.75.3-1.85,4.15-4.85,10.85-10.5,9.15Zm-3.4-4.3c-1.6,1.6-.95,3.95,1,3.95.35,0,.7-.05,1-.2-1.05-.65-1.9-1.85-2-3.75Zm4.4-11.4c-1.35,2.7-3.5,7.05-4.7,9.25,0,0,1.1-.05,1.05,1.6-.1,1.9.95,3.3,2.1,3.85,1.1-.85,2.05-2.55,2.2-5.2.15-3.15-1.05-7.25-.65-9.5Z"/>
      <path class="cls-3" d="m110.97,159.5c.75.1,1.7-.45,2.25-.95,1.65-1.65,3.3-4.75,4.7-7.55.4-.9,1.1-.55.65.45-1.3,2.8-4.15,9.15-7.85,9.15s-3.75-3.9-2.7-6.5l3.2-8.15c.4-.95-.3-1.85-.5-2.1l2.75-.05c1.6,0,1.6.55,1.05,1.75l-4,9.35s-.5,1.1-.6,1.45c-.45,1.65-.35,3.05,1.05,3.15Zm3.6-17.75c-1.15,0-1.9-.9-1.75-2.05.2-1.15,1.3-2.05,2.4-2.05s1.95.9,1.75,2.05c-.2,1.15-1.25,2.05-2.4,2.05Z"/>
      <path class="cls-3" d="m128.62,160.7c-1.65.1-4-1.2-2.5-6.45-.8,1.3-2.15,3.3-3.6,4.7-5.75,5.5-9.55-3.25-2-12.3,3-3.55,8.75-5.4,11.6-2.3.7.75.3,1.6-.55,1.45-.55-1.85-2.4-2.25-4.25-1.25-2.25,1.25-4.85,4.2-6.65,7.15-.4.7-1.75,3.15-2.05,5.05-.5,3.5,2.25,3.1,4.6.3,1.75-2.1,3.15-4.55,4.45-7,1.1-2.1,1.8-3.3,3.4-3.2.65.05,1.4.35,2.1.2-1.05,1.05-4,6.3-4.65,9.35-.4,2.05-.15,3,.5,3,2.1.1,5.4-6.25,6.45-8.4.45-.9,1.2-.6.7.4-1.5,3.05-4.55,9.05-7.55,9.3Z"/>
    </g>
  </g>
</svg>